# This file uses centimeters as units for non-parametric coordinates.

mtllib Assignemnt_4.2.mtl
g default
v 1.237132 -0.144051 0.864681
v 0.866133 0.410357 0.864681
v 0.460761 0.999136 0.864681
v 0.460761 0.999136 -4.508649
v 0.866133 0.410356 -4.508649
v 1.237132 -0.144051 -4.508649
v -0.000000 -0.133690 0.864681
v -0.000000 0.411031 0.864681
v 0.000000 1.025834 0.864681
v 0.000000 1.640385 0.864681
v 0.000000 1.640385 -4.508649
v 0.000000 1.025834 -4.508649
v 0.000000 0.411031 -4.508649
v -0.000000 -0.133690 -4.508649
v -1.237132 -0.144051 0.864681
v -0.866133 0.410357 0.864681
v -0.460761 0.999136 0.864681
v -0.460761 0.999136 -4.508649
v -0.866133 0.410356 -4.508649
v -1.237132 -0.144051 -4.508649
vt 0.625000 0.000000
vt 0.625000 0.083333
vt 0.625000 0.166667
vt 0.625000 0.583333
vt 0.625000 0.666667
vt 0.625000 0.750000
vt 0.625000 1.000000
vt 0.875000 0.000000
vt 0.875000 0.083333
vt 0.875000 0.166667
vt 0.535934 0.000000
vt 0.535934 1.000000
vt 0.545699 0.083333
vt 0.564998 0.166667
vt 0.619949 0.250000
vt 0.619949 0.500000
vt 0.564998 0.583333
vt 0.545699 0.666667
vt 0.535934 0.750000
vt 0.625000 0.000000
vt 0.875000 0.000000
vt 0.875000 0.083333
vt 0.625000 0.083333
vt 0.875000 0.166667
vt 0.625000 0.166667
vt 0.545699 0.083333
vt 0.535934 0.000000
vt 0.564998 0.166667
vt 0.619949 0.250000
vt 0.619949 0.500000
vt 0.564998 0.583333
vt 0.625000 0.583333
vt 0.545699 0.666667
vt 0.625000 0.666667
vt 0.535934 0.750000
vt 0.625000 0.750000
vt 0.535934 1.000000
vt 0.625000 1.000000
vn 0.831085 0.556146 -0.000000
vn 0.831085 0.556146 -0.000000
vn 0.827262 0.561817 -0.000000
vn 0.827262 0.561817 -0.000000
vn 0.817632 0.575741 -0.000000
vn 0.817632 0.575741 -0.000000
vn -0.000000 0.000000 1.000000
vn 0.000000 0.000000 1.000000
vn -0.000000 0.000000 1.000000
vn -0.000000 0.000000 1.000000
vn 0.000000 0.000000 1.000000
vn 0.000000 0.000000 1.000000
vn 0.000000 0.000000 1.000000
vn 0.812097 0.583522 -0.000000
vn 0.812097 0.583522 -0.000000
vn 0.000000 0.000000 -1.000000
vn -0.000000 0.000000 -1.000000
vn 0.000000 0.000000 -1.000000
vn 0.000000 0.000000 -1.000000
vn 0.000000 0.000000 -1.000000
vn -0.000000 0.000000 -1.000000
vn 0.000000 0.000000 -1.000000
vn 0.000000 -1.000000 -0.000000
vn 0.000000 -1.000000 -0.000000
vn -0.008375 -0.999965 0.000000
vn -0.008375 -0.999965 0.000000
vn -0.831085 0.556146 -0.000000
vn -0.827262 0.561817 -0.000000
vn -0.827262 0.561817 -0.000000
vn -0.831085 0.556146 -0.000000
vn -0.817632 0.575741 -0.000000
vn -0.817632 0.575741 -0.000000
vn -0.812098 0.583522 -0.000000
vn -0.812098 0.583522 -0.000000
vn 0.000000 0.000000 1.000000
vn 0.000000 0.000000 1.000000
vn -0.000000 0.000000 1.000000
vn -0.000000 0.000000 -1.000000
vn -0.000000 0.000000 -1.000000
vn -0.000000 0.000000 -1.000000
vn 0.008375 -0.999965 -0.000000
vn 0.008375 -0.999965 -0.000000
s 1
g pCube1
usemtl initialShadingGroup
f 1/1/1 6/8/2 5/9/3 2/2/4
f 2/2/4 5/9/3 4/10/5 3/3/6
s 2
f 8/13/7 7/11/8 1/1/9 2/2/10
f 9/14/11 8/13/7 2/2/10 3/3/12
f 10/15/13 9/14/11 3/3/12
s 1
f 4/10/5 11/16/14 10/15/15 3/3/6
s 3
f 12/17/16 11/16/17 4/4/18
f 13/18/19 12/17/16 4/4/18 5/5/20
f 14/19/21 13/18/19 5/5/20 6/6/22
s 4
f 7/12/23 14/19/24 6/6/25 1/7/26
s 5
f 15/20/27 16/23/28 19/22/29 20/21/30
f 16/23/28 17/25/31 18/24/32 19/22/29
f 18/24/32 17/25/31 10/29/33 11/30/34
s 2
f 8/26/7 16/23/35 15/20/36 7/27/8
f 9/28/11 17/25/37 16/23/35 8/26/7
f 10/29/13 17/25/37 9/28/11
s 3
f 12/31/16 18/32/38 11/30/17
f 13/33/19 19/34/39 18/32/38 12/31/16
f 14/35/21 20/36/40 19/34/39 13/33/19
s 4
f 7/37/23 15/38/41 20/36/42 14/35/24
